<mxfile host="app.diagrams.net" agent="Mozilla/5.0 (Windows NT 10.0; Win64; x64) AppleWebKit/537.36 (KHTML, like Gecko) Chrome/127.0.0.0 Safari/537.36" version="24.7.7">
  <diagram name="第 1 页" id="UOOt-DjZN5YOnnUXguyX">
    <mxGraphModel dx="1221" dy="725" grid="1" gridSize="10" guides="1" tooltips="1" connect="1" arrows="1" fold="1" page="1" pageScale="1" pageWidth="827" pageHeight="1169" math="0" shadow="0">
      <root>
        <mxCell id="0" />
        <mxCell id="1" parent="0" />
        <mxCell id="d3mJuJrBBcRheNvAlgzQ-1" style="edgeStyle=orthogonalEdgeStyle;rounded=0;orthogonalLoop=1;jettySize=auto;html=1;exitX=1;exitY=0.5;exitDx=0;exitDy=0;" edge="1" parent="1" source="d3mJuJrBBcRheNvAlgzQ-2" target="d3mJuJrBBcRheNvAlgzQ-4">
          <mxGeometry relative="1" as="geometry" />
        </mxCell>
        <mxCell id="d3mJuJrBBcRheNvAlgzQ-2" value="剖面分析" style="rounded=0;whiteSpace=wrap;html=1;" vertex="1" parent="1">
          <mxGeometry x="240" y="210" width="120" height="60" as="geometry" />
        </mxCell>
        <mxCell id="d3mJuJrBBcRheNvAlgzQ-3" style="edgeStyle=orthogonalEdgeStyle;rounded=0;orthogonalLoop=1;jettySize=auto;html=1;exitX=1;exitY=0.5;exitDx=0;exitDy=0;" edge="1" parent="1" source="d3mJuJrBBcRheNvAlgzQ-4" target="d3mJuJrBBcRheNvAlgzQ-5">
          <mxGeometry relative="1" as="geometry" />
        </mxCell>
        <mxCell id="d3mJuJrBBcRheNvAlgzQ-4" value="剖面线选择" style="rounded=0;whiteSpace=wrap;html=1;" vertex="1" parent="1">
          <mxGeometry x="404" y="210" width="120" height="60" as="geometry" />
        </mxCell>
        <mxCell id="d3mJuJrBBcRheNvAlgzQ-5" value="调整保存结果" style="rounded=0;whiteSpace=wrap;html=1;" vertex="1" parent="1">
          <mxGeometry x="560" y="210" width="120" height="60" as="geometry" />
        </mxCell>
        <mxCell id="d3mJuJrBBcRheNvAlgzQ-6" style="edgeStyle=orthogonalEdgeStyle;rounded=0;orthogonalLoop=1;jettySize=auto;html=1;exitX=1;exitY=0.5;exitDx=0;exitDy=0;entryX=0;entryY=0.5;entryDx=0;entryDy=0;" edge="1" parent="1" source="d3mJuJrBBcRheNvAlgzQ-9" target="d3mJuJrBBcRheNvAlgzQ-11">
          <mxGeometry relative="1" as="geometry" />
        </mxCell>
        <mxCell id="d3mJuJrBBcRheNvAlgzQ-9" value="坡向分析" style="rounded=0;whiteSpace=wrap;html=1;" vertex="1" parent="1">
          <mxGeometry x="240" y="300" width="120" height="60" as="geometry" />
        </mxCell>
        <mxCell id="d3mJuJrBBcRheNvAlgzQ-10" style="edgeStyle=orthogonalEdgeStyle;rounded=0;orthogonalLoop=1;jettySize=auto;html=1;exitX=1;exitY=0.5;exitDx=0;exitDy=0;" edge="1" parent="1" source="d3mJuJrBBcRheNvAlgzQ-11" target="d3mJuJrBBcRheNvAlgzQ-12">
          <mxGeometry relative="1" as="geometry" />
        </mxCell>
        <mxCell id="d3mJuJrBBcRheNvAlgzQ-11" value="分析区域选择" style="rounded=0;whiteSpace=wrap;html=1;" vertex="1" parent="1">
          <mxGeometry x="404" y="300" width="120" height="60" as="geometry" />
        </mxCell>
        <mxCell id="d3mJuJrBBcRheNvAlgzQ-12" value="坡向图输出" style="rounded=0;whiteSpace=wrap;html=1;" vertex="1" parent="1">
          <mxGeometry x="560" y="300" width="120" height="60" as="geometry" />
        </mxCell>
        <mxCell id="d3mJuJrBBcRheNvAlgzQ-13" style="edgeStyle=orthogonalEdgeStyle;rounded=0;orthogonalLoop=1;jettySize=auto;html=1;exitX=1;exitY=0.5;exitDx=0;exitDy=0;entryX=0;entryY=0.5;entryDx=0;entryDy=0;" edge="1" parent="1" source="d3mJuJrBBcRheNvAlgzQ-15" target="d3mJuJrBBcRheNvAlgzQ-17">
          <mxGeometry relative="1" as="geometry" />
        </mxCell>
        <mxCell id="d3mJuJrBBcRheNvAlgzQ-15" value="通视分析" style="rounded=0;whiteSpace=wrap;html=1;" vertex="1" parent="1">
          <mxGeometry x="240" y="390" width="120" height="60" as="geometry" />
        </mxCell>
        <mxCell id="d3mJuJrBBcRheNvAlgzQ-16" style="edgeStyle=orthogonalEdgeStyle;rounded=0;orthogonalLoop=1;jettySize=auto;html=1;exitX=1;exitY=0.5;exitDx=0;exitDy=0;" edge="1" parent="1" source="d3mJuJrBBcRheNvAlgzQ-17" target="d3mJuJrBBcRheNvAlgzQ-18">
          <mxGeometry relative="1" as="geometry" />
        </mxCell>
        <mxCell id="d3mJuJrBBcRheNvAlgzQ-17" value="观察点和目标点选择" style="rounded=0;whiteSpace=wrap;html=1;" vertex="1" parent="1">
          <mxGeometry x="404" y="390" width="120" height="60" as="geometry" />
        </mxCell>
        <mxCell id="d3mJuJrBBcRheNvAlgzQ-18" value="调整保存结果" style="rounded=0;whiteSpace=wrap;html=1;" vertex="1" parent="1">
          <mxGeometry x="560" y="390" width="120" height="60" as="geometry" />
        </mxCell>
        <mxCell id="d3mJuJrBBcRheNvAlgzQ-19" style="edgeStyle=orthogonalEdgeStyle;rounded=0;orthogonalLoop=1;jettySize=auto;html=1;exitX=1;exitY=0.5;exitDx=0;exitDy=0;" edge="1" parent="1" source="d3mJuJrBBcRheNvAlgzQ-20" target="d3mJuJrBBcRheNvAlgzQ-22">
          <mxGeometry relative="1" as="geometry" />
        </mxCell>
        <mxCell id="d3mJuJrBBcRheNvAlgzQ-20" value="等高线分析" style="rounded=0;whiteSpace=wrap;html=1;" vertex="1" parent="1">
          <mxGeometry x="240" y="480" width="120" height="60" as="geometry" />
        </mxCell>
        <mxCell id="d3mJuJrBBcRheNvAlgzQ-21" style="edgeStyle=orthogonalEdgeStyle;rounded=0;orthogonalLoop=1;jettySize=auto;html=1;exitX=1;exitY=0.5;exitDx=0;exitDy=0;" edge="1" parent="1" source="d3mJuJrBBcRheNvAlgzQ-22" target="d3mJuJrBBcRheNvAlgzQ-23">
          <mxGeometry relative="1" as="geometry" />
        </mxCell>
        <mxCell id="d3mJuJrBBcRheNvAlgzQ-22" value="区域参数选择" style="rounded=0;whiteSpace=wrap;html=1;" vertex="1" parent="1">
          <mxGeometry x="404" y="480" width="120" height="60" as="geometry" />
        </mxCell>
        <mxCell id="d3mJuJrBBcRheNvAlgzQ-23" value="分析保存结果" style="rounded=0;whiteSpace=wrap;html=1;" vertex="1" parent="1">
          <mxGeometry x="560" y="480" width="120" height="60" as="geometry" />
        </mxCell>
        <mxCell id="d3mJuJrBBcRheNvAlgzQ-25" style="edgeStyle=orthogonalEdgeStyle;rounded=0;orthogonalLoop=1;jettySize=auto;html=1;exitX=1;exitY=0.5;exitDx=0;exitDy=0;entryX=0;entryY=0.5;entryDx=0;entryDy=0;" edge="1" parent="1" source="d3mJuJrBBcRheNvAlgzQ-24" target="d3mJuJrBBcRheNvAlgzQ-2">
          <mxGeometry relative="1" as="geometry" />
        </mxCell>
        <mxCell id="d3mJuJrBBcRheNvAlgzQ-26" style="edgeStyle=orthogonalEdgeStyle;rounded=0;orthogonalLoop=1;jettySize=auto;html=1;exitX=1;exitY=0.5;exitDx=0;exitDy=0;" edge="1" parent="1" source="d3mJuJrBBcRheNvAlgzQ-24" target="d3mJuJrBBcRheNvAlgzQ-9">
          <mxGeometry relative="1" as="geometry" />
        </mxCell>
        <mxCell id="d3mJuJrBBcRheNvAlgzQ-27" style="edgeStyle=orthogonalEdgeStyle;rounded=0;orthogonalLoop=1;jettySize=auto;html=1;exitX=1;exitY=0.5;exitDx=0;exitDy=0;" edge="1" parent="1" source="d3mJuJrBBcRheNvAlgzQ-24" target="d3mJuJrBBcRheNvAlgzQ-15">
          <mxGeometry relative="1" as="geometry" />
        </mxCell>
        <mxCell id="d3mJuJrBBcRheNvAlgzQ-28" style="edgeStyle=orthogonalEdgeStyle;rounded=0;orthogonalLoop=1;jettySize=auto;html=1;exitX=1;exitY=0.5;exitDx=0;exitDy=0;entryX=0;entryY=0.5;entryDx=0;entryDy=0;" edge="1" parent="1" source="d3mJuJrBBcRheNvAlgzQ-24" target="d3mJuJrBBcRheNvAlgzQ-20">
          <mxGeometry relative="1" as="geometry" />
        </mxCell>
        <mxCell id="d3mJuJrBBcRheNvAlgzQ-24" value="空间分析功能" style="rounded=1;whiteSpace=wrap;html=1;" vertex="1" parent="1">
          <mxGeometry x="60" y="350" width="120" height="60" as="geometry" />
        </mxCell>
      </root>
    </mxGraphModel>
  </diagram>
</mxfile>
